<?xml version="1.0" encoding="utf-8"?>
<!-- Generator: Adobe Illustrator 16.0.4, SVG Export Plug-In . SVG Version: 6.00 Build 0)  -->
<!DOCTYPE svg PUBLIC "-//W3C//DTD SVG 1.1//EN" "http://www.w3.org/Graphics/SVG/1.1/DTD/svg11.dtd">
<svg version="1.1" id="Layer_1" xmlns="http://www.w3.org/2000/svg" xmlns:xlink="http://www.w3.org/1999/xlink" x="0px" y="0px"
	 width="926.953px" height="623.968px" viewBox="0 0 926.953 623.968" enable-background="new 0 0 926.953 623.968"
	 xml:space="preserve">
<g>
	<rect x="-133.563" y="5.394" display="none" fill="#F4F5F5" width="1200" height="658.5"/>
	<g display="none">
		<defs>
			<rect id="SVGID_1_" x="-105.564" y="5.394" width="1144" height="658.5"/>
		</defs>
		<clipPath id="SVGID_2_" display="inline">
			<use xlink:href="#SVGID_1_"  overflow="visible"/>
		</clipPath>
		<g display="inline" clip-path="url(#SVGID_2_)">
			<defs>
				<rect id="SVGID_3_" x="-105.563" y="4.028" width="1144" height="661.232"/>
			</defs>
			<clipPath id="SVGID_4_">
				<use xlink:href="#SVGID_3_"  overflow="visible"/>
			</clipPath>
			<g transform="matrix(1 0 0 1 -7.629395e-06 0)" clip-path="url(#SVGID_4_)">
				
					<image overflow="visible" width="2500" height="1445" xlink:href="E23D333A19B0553E.jpg"  transform="matrix(0.4576 0 0 0.4576 -105.5635 4.0278)">
				</image>
			</g>
		</g>
	</g>
	<g display="none">
		<g display="inline" opacity="0.85">
			<g>
				<defs>
					<rect id="SVGID_5_" x="-134.563" y="4.394" width="1201.999" height="660.5"/>
				</defs>
				<clipPath id="SVGID_6_">
					<use xlink:href="#SVGID_5_"  overflow="visible"/>
				</clipPath>
				<rect x="-133.563" y="5.394" clip-path="url(#SVGID_6_)" fill="#F4F5F5" width="1200" height="658.5"/>
			</g>
		</g>
	</g>
	<g>
		<defs>
			<path id="SVGID_7_" d="M44.098,76.163c-6.442,0-11.712,5.273-11.712,11.717v363.225c0,6.444,5.27,11.716,11.712,11.716h222.525
				c6.441,0,11.712-5.271,11.712-11.716V87.88c0-6.444-5.271-11.717-11.712-11.717H44.098z"/>
		</defs>
		<clipPath id="SVGID_8_">
			<use xlink:href="#SVGID_7_"  overflow="visible"/>
		</clipPath>
		<g clip-path="url(#SVGID_8_)">
			<defs>
				<rect id="SVGID_9_" x="32.333" y="76.164" width="246.055" height="386.658"/>
			</defs>
			<clipPath id="SVGID_10_">
				<use xlink:href="#SVGID_9_"  overflow="visible"/>
			</clipPath>
			<g transform="matrix(1 0 0 1 3.814697e-06 0)" clip-path="url(#SVGID_10_)">
				
					<image overflow="visible" width="513" height="806" xlink:href="E23D333A19B05539.jpg"  transform="matrix(0.4796 0 0 0.4797 32.3325 76.1636)">
				</image>
			</g>
		</g>
	</g>
	<g>
		<defs>
			<path id="SVGID_11_" d="M354.623,76.163c-6.441,0-11.711,5.273-11.711,11.717v363.225c0,6.444,5.27,11.716,11.711,11.716h222.525
				c6.442,0,11.712-5.271,11.712-11.716V87.88c0-6.444-5.27-11.717-11.712-11.717H354.623z"/>
		</defs>
		<clipPath id="SVGID_12_">
			<use xlink:href="#SVGID_11_"  overflow="visible"/>
		</clipPath>
		<g clip-path="url(#SVGID_12_)">
			<defs>
				<rect id="SVGID_13_" x="342.858" y="76.164" width="246.055" height="386.658"/>
			</defs>
			<clipPath id="SVGID_14_">
				<use xlink:href="#SVGID_13_"  overflow="visible"/>
			</clipPath>
			<g transform="matrix(1 0 0 1 3.051758e-05 0)" clip-path="url(#SVGID_14_)">
				
					<image overflow="visible" width="513" height="806" xlink:href="E23D333A19B05538.jpg"  transform="matrix(0.4796 0 0 0.4797 342.8584 76.1636)">
				</image>
			</g>
		</g>
	</g>
	<g>
		<defs>
			<path id="SVGID_15_" d="M664.097,76.163c-6.441,0-11.711,5.273-11.711,11.717v363.225c0,6.444,5.27,11.716,11.711,11.716h222.526
				c6.44,0,11.712-5.271,11.712-11.716V87.88c0-6.444-5.271-11.717-11.712-11.717H664.097z"/>
		</defs>
		<clipPath id="SVGID_16_">
			<use xlink:href="#SVGID_15_"  overflow="visible"/>
		</clipPath>
		<g clip-path="url(#SVGID_16_)">
			<defs>
				<rect id="SVGID_17_" x="652.333" y="76.164" width="246.055" height="386.658"/>
			</defs>
			<clipPath id="SVGID_18_">
				<use xlink:href="#SVGID_17_"  overflow="visible"/>
			</clipPath>
			<g transform="matrix(1 0 0 1 6.103516e-05 0)" clip-path="url(#SVGID_18_)">
				
					<image overflow="visible" width="513" height="806" xlink:href="E23D333A19B05537.jpg"  transform="matrix(0.4796 0 0 0.4797 652.333 76.1636)">
				</image>
			</g>
		</g>
	</g>
	<text transform="matrix(1 0 0 1 179.1562 537.1245)"><tspan x="0" y="0" font-family="'WorkSans-Regular'" font-size="19">M</tspan><tspan x="16.188" y="0" font-family="'WorkSans-Regular'" font-size="19">a</tspan><tspan x="27.056" y="0" font-family="'WorkSans-Regular'" font-size="19">k</tspan><tspan x="37.429" y="0" font-family="'WorkSans-Regular'" font-size="19">e a </tspan><tspan x="72.56" y="0" font-family="'WorkSans-Regular'" font-size="19">p</tspan><tspan x="84.492" y="0" font-family="'WorkSans-Regular'" font-size="19">r</tspan><tspan x="92.129" y="0" font-family="'WorkSans-Regular'" font-size="19">o</tspan><tspan x="103.586" y="0" font-family="'WorkSans-Regular'" font-size="19">j</tspan><tspan x="108.526" y="0" font-family="'WorkSans-Regular'" font-size="19">e</tspan><tspan x="119.622" y="0" font-family="'WorkSans-Regular'" font-size="19">c</tspan><tspan x="130.547" y="0" font-family="'WorkSans-Regular'" font-size="19">t </tspan><tspan x="145.176" y="0" font-family="'WorkSans-Regular'" font-size="19">b</tspan><tspan x="156.861" y="0" font-family="'WorkSans-Regular'" font-size="19">y </tspan><tspan x="173.695" y="0" font-family="'WorkSans-Regular'" font-size="19">s</tspan><tspan x="183.746" y="0" font-family="'WorkSans-Regular'" font-size="19">o</tspan><tspan x="195.278" y="0" font-family="'WorkSans-Regular'" font-size="19">ur</tspan><tspan x="214.563" y="0" font-family="'WorkSans-Regular'" font-size="19">c</tspan><tspan x="225.184" y="0" font-family="'WorkSans-Regular'" font-size="19">i</tspan><tspan x="230.104" y="0" font-family="'WorkSans-Regular'" font-size="19">n</tspan><tspan x="241.827" y="0" font-family="'WorkSans-Regular'" font-size="19">g </tspan><tspan x="258.927" y="0" font-family="'WorkSans-Regular'" font-size="19">m</tspan><tspan x="277.034" y="0" font-family="'WorkSans-Regular'" font-size="19">a</tspan><tspan x="287.617" y="0" font-family="'WorkSans-Regular'" font-size="19">te</tspan><tspan x="306.616" y="0" font-family="'WorkSans-Regular'" font-size="19">r</tspan><tspan x="314.463" y="0" font-family="'WorkSans-Regular'" font-size="19">i</tspan><tspan x="319.403" y="0" font-family="'WorkSans-Regular'" font-size="19">a</tspan><tspan x="330.271" y="0" font-family="'WorkSans-Regular'" font-size="19">l</tspan><tspan x="336.731" y="0" font-family="'WorkSans-Regular'" font-size="19">s</tspan><tspan x="346.819" y="0" font-family="'WorkSans-Regular'" font-size="19"> </tspan><tspan x="353.394" y="0" font-family="'WorkSans-Regular'" font-size="19">f</tspan><tspan x="361.051" y="0" font-family="'WorkSans-Regular'" font-size="19">r</tspan><tspan x="368.688" y="0" font-family="'WorkSans-Regular'" font-size="19">o</tspan><tspan x="380.202" y="0" font-family="'WorkSans-Regular'" font-size="19">m </tspan><tspan x="404.978" y="0" font-family="'WorkSans-Regular'" font-size="19">a</tspan><tspan x="415.808" y="0" font-family="'WorkSans-Regular'" font-size="19"> </tspan><tspan x="422.381" y="0" font-family="'WorkSans-Regular'" font-size="19">c</tspan><tspan x="433.135" y="0" font-family="'WorkSans-Regular'" font-size="19">o</tspan><tspan x="444.687" y="0" font-family="'WorkSans-Regular'" font-size="19">l</tspan><tspan x="450.748" y="0" font-family="'WorkSans-Regular'" font-size="19">l</tspan><tspan x="456.752" y="0" font-family="'WorkSans-Regular'" font-size="19">e</tspan><tspan x="467.848" y="0" font-family="'WorkSans-Regular'" font-size="19">c</tspan><tspan x="478.772" y="0" font-family="'WorkSans-Regular'" font-size="19">t</tspan><tspan x="486.866" y="0" font-family="'WorkSans-Regular'" font-size="19">i</tspan><tspan x="492.129" y="0" font-family="'WorkSans-Regular'" font-size="19">v</tspan><tspan x="501.914" y="0" font-family="'WorkSans-Regular'" font-size="19">e</tspan><tspan x="512.953" y="0" font-family="'WorkSans-Regular'" font-size="19">, </tspan><tspan x="524.676" y="0" font-family="'WorkSans-Regular'" font-size="19">u</tspan><tspan x="536.398" y="0" font-family="'WorkSans-Regular'" font-size="19">s</tspan><tspan x="546.392" y="0" font-family="'WorkSans-Regular'" font-size="19">i</tspan><tspan x="551.312" y="0" font-family="'WorkSans-Regular'" font-size="19">n</tspan><tspan x="563.036" y="0" font-family="'WorkSans-Regular'" font-size="19">g </tspan></text>
	<text transform="matrix(1 0 0 1 180.4663 565.1245)"><tspan x="0" y="0" font-family="'WorkSans-Regular'" font-size="19">l</tspan><tspan x="6.365" y="0" font-family="'WorkSans-Regular'" font-size="19">a</tspan><tspan x="17.233" y="0" font-family="'WorkSans-Regular'" font-size="19">b</tspan><tspan x="29.241" y="0" font-family="'WorkSans-Regular'" font-size="19">o</tspan><tspan x="40.754" y="0" font-family="'WorkSans-Regular'" font-size="19">r </tspan><tspan x="55.175" y="0" font-family="'WorkSans-Regular'" font-size="19">f</tspan><tspan x="62.832" y="0" font-family="'WorkSans-Regular'" font-size="19">r</tspan><tspan x="70.47" y="0" font-family="'WorkSans-Regular'" font-size="19">o</tspan><tspan x="81.983" y="0" font-family="'WorkSans-Regular'" font-size="19">m </tspan><tspan x="106.759" y="0" font-family="'WorkSans-Regular'" font-size="19">me</tspan><tspan x="135.905" y="0" font-family="'WorkSans-Regular'" font-size="19">m</tspan><tspan x="153.954" y="0" font-family="'WorkSans-Regular'" font-size="19">b</tspan><tspan x="165.962" y="0" font-family="'WorkSans-Regular'" font-size="19">e</tspan><tspan x="177.001" y="0" font-family="'WorkSans-Regular'" font-size="19">r</tspan><tspan x="184.867" y="0" font-family="'WorkSans-Regular'" font-size="19">s </tspan><tspan x="201.548" y="0" font-family="'WorkSans-Regular'" font-size="19">o</tspan><tspan x="213.005" y="0" font-family="'WorkSans-Regular'" font-size="19">f </tspan><tspan x="227.141" y="0" font-family="'WorkSans-Regular'" font-size="19">a</tspan><tspan x="237.971" y="0" font-family="'WorkSans-Regular'" font-size="19"> </tspan><tspan x="244.544" y="0" font-family="'WorkSans-Regular'" font-size="19">p</tspan><tspan x="256.476" y="0" font-family="'WorkSans-Regular'" font-size="19">u</tspan><tspan x="268.123" y="0" font-family="'WorkSans-Regular'" font-size="19">b</tspan><tspan x="280.074" y="0" font-family="'WorkSans-Regular'" font-size="19">l</tspan><tspan x="286.116" y="0" font-family="'WorkSans-Regular'" font-size="19">i</tspan><tspan x="291.055" y="0" font-family="'WorkSans-Regular'" font-size="19">c</tspan><tspan x="301.847" y="0" font-family="'WorkSans-Regular'" font-size="19"> </tspan><tspan x="308.421" y="0" font-family="'WorkSans-Regular'" font-size="19">i</tspan><tspan x="313.342" y="0" font-family="'WorkSans-Regular'" font-size="19">n</tspan><tspan x="325.046" y="0" font-family="'WorkSans-Regular'" font-size="19">s</tspan><tspan x="335.249" y="0" font-family="'WorkSans-Regular'" font-size="19">t</tspan><tspan x="343.342" y="0" font-family="'WorkSans-Regular'" font-size="19">i</tspan><tspan x="348.416" y="0" font-family="'WorkSans-Regular'" font-size="19">t</tspan><tspan x="356.528" y="0" font-family="'WorkSans-Regular'" font-size="19">u</tspan><tspan x="368.327" y="0" font-family="'WorkSans-Regular'" font-size="19">t</tspan><tspan x="376.42" y="0" font-family="'WorkSans-Regular'" font-size="19">i</tspan><tspan x="381.361" y="0" font-family="'WorkSans-Regular'" font-size="19">o</tspan><tspan x="392.875" y="0" font-family="'WorkSans-Regular'" font-size="19">n</tspan><tspan x="404.692" y="0" font-family="'WorkSans-Regular'" font-size="19">, </tspan><tspan x="416.415" y="0" font-family="'WorkSans-Regular'" font-size="19">a</tspan><tspan x="427.283" y="0" font-family="'WorkSans-Regular'" font-size="19">n</tspan><tspan x="439.025" y="0" font-family="'WorkSans-Regular'" font-size="19">d </tspan><tspan x="457.663" y="0" font-family="'WorkSans-Regular'" font-size="19">l</tspan><tspan x="463.705" y="0" font-family="'WorkSans-Regular'" font-size="19">i</tspan><tspan x="468.645" y="0" font-family="'WorkSans-Regular'" font-size="19">c</tspan><tspan x="479.399" y="0" font-family="'WorkSans-Regular'" font-size="19">e</tspan><tspan x="490.438" y="0" font-family="'WorkSans-Regular'" font-size="19">n</tspan><tspan x="502.141" y="0" font-family="'WorkSans-Regular'" font-size="19">s</tspan><tspan x="512.173" y="0" font-family="'WorkSans-Regular'" font-size="19">e</tspan><tspan x="523.289" y="0" font-family="'WorkSans-Regular'" font-size="19"> </tspan><tspan x="529.862" y="0" font-family="'WorkSans-Regular'" font-size="19">i</tspan><tspan x="534.935" y="0" font-family="'WorkSans-Regular'" font-size="19">t </tspan><tspan x="549.564" y="0" font-family="'WorkSans-Regular'" font-size="19">a</tspan><tspan x="560.736" y="0" font-family="'WorkSans-Regular'" font-size="19">s </tspan></text>
	<text transform="matrix(1 0 0 1 346.605 593.1245)"><tspan x="0" y="0" font-family="'WorkSans-Regular'" font-size="19">C</tspan><tspan x="13.072" y="0" font-family="'WorkSans-Regular'" font-size="19">C</tspan><tspan x="26.239" y="0" font-family="'WorkSans-Regular'" font-size="19">0</tspan><tspan x="38.132" y="0" font-family="'WorkSans-Regular'" font-size="19"> </tspan><tspan x="44.706" y="0" font-family="'WorkSans-Regular'" font-size="19">i</tspan><tspan x="49.627" y="0" font-family="'WorkSans-Regular'" font-size="19">n </tspan><tspan x="68.057" y="0" font-family="'WorkSans-Regular'" font-size="19">t</tspan><tspan x="76.15" y="0" font-family="'WorkSans-Regular'" font-size="19">h</tspan><tspan x="87.892" y="0" font-family="'WorkSans-Regular'" font-size="19">e</tspan><tspan x="99.007" y="0" font-family="'WorkSans-Regular'" font-size="19"> </tspan><tspan x="105.581" y="0" font-family="'WorkSans-Regular'" font-size="19">p</tspan><tspan x="117.513" y="0" font-family="'WorkSans-Regular'" font-size="19">u</tspan><tspan x="129.16" y="0" font-family="'WorkSans-Regular'" font-size="19">b</tspan><tspan x="141.11" y="0" font-family="'WorkSans-Regular'" font-size="19">l</tspan><tspan x="147.152" y="0" font-family="'WorkSans-Regular'" font-size="19">i</tspan><tspan x="152.092" y="0" font-family="'WorkSans-Regular'" font-size="19">c</tspan><tspan x="162.884" y="0" font-family="'WorkSans-Regular'" font-size="19"> </tspan><tspan x="169.458" y="0" font-family="'WorkSans-Regular'" font-size="19">do</tspan><tspan x="192.904" y="0" font-family="'WorkSans-Regular'" font-size="19">m</tspan><tspan x="211.01" y="0" font-family="'WorkSans-Regular'" font-size="19">a</tspan><tspan x="221.878" y="0" font-family="'WorkSans-Regular'" font-size="19">i</tspan><tspan x="226.798" y="0" font-family="'WorkSans-Regular'" font-size="19">n</tspan></text>
	<line fill="none" stroke="#000000" x1="353.886" y1="544.394" x2="431.886" y2="544.394"/>
	<line fill="none" stroke="#000000" x1="180.886" y1="570.894" x2="228.886" y2="570.894"/>
	<line fill="none" stroke="#000000" x1="639.886" y1="570.894" x2="702.886" y2="570.894"/>
</g>
</svg>
