<?xml version="1.0" encoding="utf-8"?>
<!-- Generator: Adobe Illustrator 16.0.4, SVG Export Plug-In . SVG Version: 6.00 Build 0)  -->
<!DOCTYPE svg PUBLIC "-//W3C//DTD SVG 1.1//EN" "http://www.w3.org/Graphics/SVG/1.1/DTD/svg11.dtd">
<svg version="1.1" id="Layer_1" xmlns="http://www.w3.org/2000/svg" xmlns:xlink="http://www.w3.org/1999/xlink" x="0px" y="0px"
	 width="100px" height="100px" viewBox="0 0 100 100" enable-background="new 0 0 100 100" xml:space="preserve">
<g>
	<g>
		<g>
			<defs>
				<rect id="SVGID_1_" x="-1067.503" y="-648.579" width="2234.261" height="1396.413"/>
			</defs>
			<clipPath id="SVGID_2_">
				<use xlink:href="#SVGID_1_"  overflow="visible"/>
			</clipPath>
			<path clip-path="url(#SVGID_2_)" fill="#010101" d="M-922.161,608.4c-13.378-3.272-22.194-12.165-22.194-22.125
				c0-12.92,15.352-23.434,33.598-23.434v2.436c-17.029,0-31.164,9.42-31.164,20.998c0,8.817,8.156,16.759,20.424,19.761
				L-922.161,608.4z"/>
		</g>
	</g>
	<g>
		<g>
			<defs>
				<rect id="SVGID_3_" x="-1067.503" y="-648.579" width="2234.261" height="1396.413"/>
			</defs>
			<clipPath id="SVGID_4_">
				<use xlink:href="#SVGID_3_"  overflow="visible"/>
			</clipPath>
			<path clip-path="url(#SVGID_4_)" fill="#010101" d="M-933.162,617.134c3.895-4.518,9.262-7.657,14.766-9.856
				c-4.456-3.936-8.184-8.849-10.437-14.361l-2.988-0.536c2.278,5.362,5.309,10.208,9.405,14.179
				c-5.23,2.354-9.904,5.87-13.784,10.033L-933.162,617.134z"/>
		</g>
	</g>
	<g>
		<g>
			<defs>
				<rect id="SVGID_5_" x="-1067.503" y="-648.579" width="2234.261" height="1396.413"/>
			</defs>
			<clipPath id="SVGID_6_">
				<use xlink:href="#SVGID_5_"  overflow="visible"/>
			</clipPath>
			<path clip-path="url(#SVGID_6_)" fill="#010101" d="M-914.705,580.091c13.377,3.272,21.964,12.166,21.964,22.126
				c0,12.919-15.584,23.433-33.83,23.433v-2.436c17.03,0,31.397-9.42,31.397-20.997c0-8.82-8.042-16.76-20.312-19.762
				L-914.705,580.091z"/>
		</g>
	</g>
	<g>
		<g>
			<defs>
				<rect id="SVGID_7_" x="-1067.503" y="-648.579" width="2234.261" height="1396.413"/>
			</defs>
			<clipPath id="SVGID_8_">
				<use xlink:href="#SVGID_7_"  overflow="visible"/>
			</clipPath>
			<path clip-path="url(#SVGID_8_)" fill="#010101" d="M-903.705,571.358c-3.894,4.517-9.262,7.654-14.765,9.855
				c4.456,3.937,8.183,8.847,10.437,14.361l2.987,0.537c-2.277-5.363-5.306-10.209-9.404-14.182
				c5.229-2.354,9.904-5.87,13.784-10.031L-903.705,571.358z"/>
		</g>
	</g>
</g>
<g>
	<g>
		<g>
			<defs>
				<rect id="SVGID_9_" x="-1065.758" y="-646.834" width="2234.262" height="1396.414"/>
			</defs>
			<clipPath id="SVGID_10_">
				<use xlink:href="#SVGID_9_"  overflow="visible"/>
			</clipPath>
			<path clip-path="url(#SVGID_10_)" fill="#010101" d="M-920.416,610.146c-13.378-3.273-22.194-12.166-22.194-22.128
				c0-12.919,15.353-23.432,33.599-23.432v2.437c-17.03,0-31.165,9.419-31.165,20.995c0,8.819,8.156,16.762,20.424,19.764
				L-920.416,610.146z"/>
		</g>
	</g>
	<g>
		<g>
			<defs>
				<rect id="SVGID_11_" x="-1065.758" y="-646.834" width="2234.262" height="1396.414"/>
			</defs>
			<clipPath id="SVGID_12_">
				<use xlink:href="#SVGID_11_"  overflow="visible"/>
			</clipPath>
			<path clip-path="url(#SVGID_12_)" fill="#010101" d="M-931.417,618.879c3.896-4.518,9.263-7.657,14.766-9.855
				c-4.456-3.937-8.183-8.849-10.437-14.361l-2.988-0.537c2.278,5.362,5.307,10.209,9.405,14.179
				c-5.229,2.354-9.903,5.871-13.784,10.033L-931.417,618.879z"/>
		</g>
	</g>
	<g>
		<g>
			<defs>
				<rect id="SVGID_13_" x="-1065.758" y="-646.834" width="2234.262" height="1396.414"/>
			</defs>
			<clipPath id="SVGID_14_">
				<use xlink:href="#SVGID_13_"  overflow="visible"/>
			</clipPath>
			<path clip-path="url(#SVGID_14_)" fill="#010101" d="M-912.959,581.836c13.377,3.273,21.964,12.166,21.964,22.126
				c0,12.919-15.585,23.432-33.831,23.432v-2.435c17.03,0,31.397-9.419,31.397-20.997c0-8.819-8.041-16.76-20.312-19.762
				L-912.959,581.836z"/>
		</g>
	</g>
	<g>
		<g>
			<defs>
				<rect id="SVGID_15_" x="-1065.758" y="-646.834" width="2234.262" height="1396.414"/>
			</defs>
			<clipPath id="SVGID_16_">
				<use xlink:href="#SVGID_15_"  overflow="visible"/>
			</clipPath>
			<path clip-path="url(#SVGID_16_)" fill="#010101" d="M-901.959,573.104c-3.895,4.52-9.263,7.657-14.766,9.857
				c4.457,3.936,8.183,8.848,10.437,14.361l2.988,0.537c-2.277-5.362-5.307-10.209-9.404-14.181
				c5.227-2.354,9.903-5.871,13.784-10.032L-901.959,573.104z"/>
		</g>
	</g>
</g>
<g>
	<g>
		<g>
			<defs>
				<rect id="SVGID_17_" x="-1211.503" y="-648.579" width="2234.261" height="1396.413"/>
			</defs>
			<clipPath id="SVGID_18_">
				<use xlink:href="#SVGID_17_"  overflow="visible"/>
			</clipPath>
			<path clip-path="url(#SVGID_18_)" fill="#010101" d="M-1066.161,608.4c-13.378-3.272-22.194-12.165-22.194-22.125
				c0-12.92,15.352-23.434,33.598-23.434v2.436c-17.029,0-31.164,9.42-31.164,20.998c0,8.817,8.156,16.759,20.424,19.761
				L-1066.161,608.4z"/>
		</g>
	</g>
	<g>
		<g>
			<defs>
				<rect id="SVGID_19_" x="-1211.503" y="-648.579" width="2234.261" height="1396.413"/>
			</defs>
			<clipPath id="SVGID_20_">
				<use xlink:href="#SVGID_19_"  overflow="visible"/>
			</clipPath>
			<path clip-path="url(#SVGID_20_)" fill="#010101" d="M-1077.162,617.134c3.895-4.518,9.262-7.657,14.766-9.856
				c-4.456-3.936-8.184-8.849-10.437-14.361l-2.988-0.536c2.278,5.362,5.308,10.208,9.405,14.179
				c-5.23,2.354-9.904,5.87-13.784,10.033L-1077.162,617.134z"/>
		</g>
	</g>
	<g>
		<g>
			<defs>
				<rect id="SVGID_21_" x="-1211.503" y="-648.579" width="2234.261" height="1396.413"/>
			</defs>
			<clipPath id="SVGID_22_">
				<use xlink:href="#SVGID_21_"  overflow="visible"/>
			</clipPath>
			<path clip-path="url(#SVGID_22_)" fill="#010101" d="M-1058.705,580.091c13.377,3.272,21.964,12.166,21.964,22.126
				c0,12.919-15.584,23.433-33.83,23.433v-2.436c17.03,0,31.397-9.42,31.397-20.997c0-8.82-8.042-16.76-20.311-19.762
				L-1058.705,580.091z"/>
		</g>
	</g>
	<g>
		<g>
			<defs>
				<rect id="SVGID_23_" x="-1211.503" y="-648.579" width="2234.261" height="1396.413"/>
			</defs>
			<clipPath id="SVGID_24_">
				<use xlink:href="#SVGID_23_"  overflow="visible"/>
			</clipPath>
			<path clip-path="url(#SVGID_24_)" fill="#010101" d="M-1047.705,571.358c-3.894,4.517-9.262,7.654-14.765,9.855
				c4.456,3.937,8.183,8.847,10.437,14.361l2.987,0.537c-2.277-5.363-5.306-10.209-9.404-14.182
				c5.229-2.354,9.904-5.87,13.784-10.031L-1047.705,571.358z"/>
		</g>
	</g>
</g>
<g>
	<g>
		<g>
			<defs>
				<rect id="SVGID_25_" x="-1209.758" y="-646.834" width="2234.262" height="1396.414"/>
			</defs>
			<clipPath id="SVGID_26_">
				<use xlink:href="#SVGID_25_"  overflow="visible"/>
			</clipPath>
			<path clip-path="url(#SVGID_26_)" fill="#010101" d="M-1064.416,610.146c-13.378-3.273-22.194-12.166-22.194-22.128
				c0-12.919,15.353-23.432,33.599-23.432v2.437c-17.03,0-31.165,9.419-31.165,20.995c0,8.819,8.156,16.762,20.424,19.764
				L-1064.416,610.146z"/>
		</g>
	</g>
	<g>
		<g>
			<defs>
				<rect id="SVGID_27_" x="-1209.758" y="-646.834" width="2234.262" height="1396.414"/>
			</defs>
			<clipPath id="SVGID_28_">
				<use xlink:href="#SVGID_27_"  overflow="visible"/>
			</clipPath>
			<path clip-path="url(#SVGID_28_)" fill="#010101" d="M-1075.417,618.879c3.896-4.518,9.263-7.657,14.766-9.855
				c-4.456-3.937-8.183-8.849-10.437-14.361l-2.988-0.537c2.278,5.362,5.307,10.209,9.405,14.179
				c-5.229,2.354-9.903,5.871-13.784,10.033L-1075.417,618.879z"/>
		</g>
	</g>
	<g>
		<g>
			<defs>
				<rect id="SVGID_29_" x="-1209.758" y="-646.834" width="2234.262" height="1396.414"/>
			</defs>
			<clipPath id="SVGID_30_">
				<use xlink:href="#SVGID_29_"  overflow="visible"/>
			</clipPath>
			<path clip-path="url(#SVGID_30_)" fill="#010101" d="M-1056.959,581.836c13.377,3.273,21.964,12.166,21.964,22.126
				c0,12.919-15.585,23.432-33.831,23.432v-2.435c17.03,0,31.397-9.419,31.397-20.997c0-8.819-8.041-16.76-20.311-19.762
				L-1056.959,581.836z"/>
		</g>
	</g>
	<g>
		<g>
			<defs>
				<rect id="SVGID_31_" x="-1209.758" y="-646.834" width="2234.262" height="1396.414"/>
			</defs>
			<clipPath id="SVGID_32_">
				<use xlink:href="#SVGID_31_"  overflow="visible"/>
			</clipPath>
			<path clip-path="url(#SVGID_32_)" fill="#010101" d="M-1045.959,573.104c-3.895,4.52-9.263,7.657-14.766,9.857
				c4.457,3.936,8.183,8.848,10.437,14.361l2.988,0.537c-2.277-5.362-5.307-10.209-9.404-14.181
				c5.227-2.354,9.903-5.871,13.784-10.032L-1045.959,573.104z"/>
		</g>
	</g>
</g>
<g>
	<g>
		<g>
			<defs>
				<rect id="SVGID_33_" x="-945.003" y="-648.579" width="2234.261" height="1396.413"/>
			</defs>
			<clipPath id="SVGID_34_">
				<use xlink:href="#SVGID_33_"  overflow="visible"/>
			</clipPath>
			<path clip-path="url(#SVGID_34_)" fill="#010101" d="M-799.661,608.4c-13.378-3.272-22.194-12.165-22.194-22.125
				c0-12.92,15.352-23.434,33.598-23.434v2.436c-17.029,0-31.164,9.42-31.164,20.998c0,8.817,8.156,16.759,20.424,19.761
				L-799.661,608.4z"/>
		</g>
	</g>
	<g>
		<g>
			<defs>
				<rect id="SVGID_35_" x="-945.003" y="-648.579" width="2234.261" height="1396.413"/>
			</defs>
			<clipPath id="SVGID_36_">
				<use xlink:href="#SVGID_35_"  overflow="visible"/>
			</clipPath>
			<path clip-path="url(#SVGID_36_)" fill="#010101" d="M-810.662,617.134c3.895-4.518,9.262-7.657,14.766-9.856
				c-4.456-3.936-8.184-8.849-10.437-14.361l-2.988-0.536c2.278,5.362,5.309,10.208,9.405,14.179
				c-5.23,2.354-9.904,5.87-13.784,10.033L-810.662,617.134z"/>
		</g>
	</g>
	<g>
		<g>
			<defs>
				<rect id="SVGID_37_" x="-945.003" y="-648.579" width="2234.261" height="1396.413"/>
			</defs>
			<clipPath id="SVGID_38_">
				<use xlink:href="#SVGID_37_"  overflow="visible"/>
			</clipPath>
			<path clip-path="url(#SVGID_38_)" fill="#010101" d="M-792.205,580.091c13.377,3.272,21.964,12.166,21.964,22.126
				c0,12.919-15.584,23.433-33.83,23.433v-2.436c17.03,0,31.397-9.42,31.397-20.997c0-8.82-8.042-16.76-20.312-19.762
				L-792.205,580.091z"/>
		</g>
	</g>
	<g>
		<g>
			<defs>
				<rect id="SVGID_39_" x="-945.003" y="-648.579" width="2234.261" height="1396.413"/>
			</defs>
			<clipPath id="SVGID_40_">
				<use xlink:href="#SVGID_39_"  overflow="visible"/>
			</clipPath>
			<path clip-path="url(#SVGID_40_)" fill="#010101" d="M-781.205,571.358c-3.894,4.517-9.262,7.654-14.765,9.855
				c4.456,3.937,8.183,8.847,10.437,14.361l2.987,0.537c-2.277-5.363-5.306-10.209-9.404-14.182
				c5.229-2.354,9.904-5.87,13.784-10.031L-781.205,571.358z"/>
		</g>
	</g>
</g>
<g>
	<g>
		<g>
			<defs>
				<rect id="SVGID_41_" x="-943.258" y="-646.834" width="2234.262" height="1396.414"/>
			</defs>
			<clipPath id="SVGID_42_">
				<use xlink:href="#SVGID_41_"  overflow="visible"/>
			</clipPath>
			<path clip-path="url(#SVGID_42_)" fill="#010101" d="M-797.916,610.146c-13.378-3.273-22.194-12.166-22.194-22.128
				c0-12.919,15.353-23.432,33.599-23.432v2.437c-17.03,0-31.165,9.419-31.165,20.995c0,8.819,8.156,16.762,20.424,19.764
				L-797.916,610.146z"/>
		</g>
	</g>
	<g>
		<g>
			<defs>
				<rect id="SVGID_43_" x="-943.258" y="-646.834" width="2234.262" height="1396.414"/>
			</defs>
			<clipPath id="SVGID_44_">
				<use xlink:href="#SVGID_43_"  overflow="visible"/>
			</clipPath>
			<path clip-path="url(#SVGID_44_)" fill="#010101" d="M-808.917,618.879c3.896-4.518,9.263-7.657,14.766-9.855
				c-4.456-3.937-8.183-8.849-10.437-14.361l-2.988-0.537c2.278,5.362,5.307,10.209,9.405,14.179
				c-5.229,2.354-9.903,5.871-13.784,10.033L-808.917,618.879z"/>
		</g>
	</g>
	<g>
		<g>
			<defs>
				<rect id="SVGID_45_" x="-943.258" y="-646.834" width="2234.262" height="1396.414"/>
			</defs>
			<clipPath id="SVGID_46_">
				<use xlink:href="#SVGID_45_"  overflow="visible"/>
			</clipPath>
			<path clip-path="url(#SVGID_46_)" fill="#010101" d="M-790.459,581.836c13.377,3.273,21.964,12.166,21.964,22.126
				c0,12.919-15.585,23.432-33.831,23.432v-2.435c17.03,0,31.397-9.419,31.397-20.997c0-8.819-8.041-16.76-20.312-19.762
				L-790.459,581.836z"/>
		</g>
	</g>
	<g>
		<g>
			<defs>
				<rect id="SVGID_47_" x="-943.258" y="-646.834" width="2234.262" height="1396.414"/>
			</defs>
			<clipPath id="SVGID_48_">
				<use xlink:href="#SVGID_47_"  overflow="visible"/>
			</clipPath>
			<path clip-path="url(#SVGID_48_)" fill="#010101" d="M-779.459,573.104c-3.895,4.52-9.263,7.657-14.766,9.857
				c4.457,3.936,8.183,8.848,10.437,14.361l2.988,0.537c-2.277-5.362-5.307-10.209-9.404-14.181
				c5.227-2.354,9.903-5.871,13.784-10.032L-779.459,573.104z"/>
		</g>
	</g>
</g>
<g>
	<g>
		<path d="M71.176,22.86v57.007H27.265V37.497L42.384,22.86H71.176 M73.176,20.86h-2H42.384h-0.81l-0.582,0.563L25.874,36.06
			l-0.609,0.589v0.848v42.371v2h2h43.911h2v-2V22.86V20.86L73.176,20.86z"/>
	</g>
	<polyline fill="none" stroke="#000000" stroke-width="2" stroke-miterlimit="10" points="26.235,37.385 42.386,37.385 
		42.386,21.943 	"/>
</g>
</svg>
