<?xml version="1.0" encoding="utf-8"?>
<!-- Generator: Adobe Illustrator 16.0.4, SVG Export Plug-In . SVG Version: 6.00 Build 0)  -->
<!DOCTYPE svg PUBLIC "-//W3C//DTD SVG 1.1//EN" "http://www.w3.org/Graphics/SVG/1.1/DTD/svg11.dtd">
<svg version="1.1" id="Layer_1" xmlns="http://www.w3.org/2000/svg" xmlns:xlink="http://www.w3.org/1999/xlink" x="0px" y="0px"
	 width="219.5px" height="219.5px" viewBox="0 0 219.5 219.5" enable-background="new 0 0 219.5 219.5" xml:space="preserve">
<g>
	<defs>
		<rect id="SVGID_1_" x="81.709" y="0.771" width="41.872" height="28.297"/>
	</defs>
	<clipPath id="SVGID_2_">
		<use xlink:href="#SVGID_1_"  overflow="visible"/>
	</clipPath>
	<g transform="matrix(1 0 0 1 0 -5.960464e-08)" clip-path="url(#SVGID_2_)">
		
			<image overflow="visible" width="522" height="353" xlink:href="B94377CFC641283B.png"  transform="matrix(0.0802 0 0 0.0802 81.709 0.7715)">
		</image>
	</g>
</g>
<g>
	<defs>
		<path id="SVGID_3_" d="M194.69,88.883c3.185,2.577,7.602,3.474,11.727,1.981l-2.01-5.517L194.69,88.883z"/>
	</defs>
	<clipPath id="SVGID_4_">
		<use xlink:href="#SVGID_3_"  overflow="visible"/>
	</clipPath>
	
		<rect x="198.695" y="82.179" transform="matrix(0.3421 0.9397 -0.9397 0.3421 213.9725 -128.7076)" clip-path="url(#SVGID_4_)" fill="#FFFFFF" width="0.417" height="12.553"/>
	
		<rect x="200.117" y="86.084" transform="matrix(0.3421 0.9397 -0.9397 0.3421 218.5785 -127.4738)" clip-path="url(#SVGID_4_)" fill="#FFFFFF" width="0.417" height="12.556"/>
	
		<rect x="199.408" y="84.13" transform="matrix(0.3387 0.9409 -0.9409 0.3387 217.0647 -128.0309)" clip-path="url(#SVGID_4_)" fill="#FFFFFF" width="0.415" height="12.554"/>
	
		<rect x="210.413" y="77.912" transform="matrix(0.3395 0.9406 -0.9406 0.3395 218.3112 -142.5029)" clip-path="url(#SVGID_4_)" fill="#F06CA8" width="0.414" height="12.556"/>
	
		<rect x="211.835" y="81.819" transform="matrix(0.3429 0.9394 -0.9394 0.3429 222.0953 -141.2986)" clip-path="url(#SVGID_4_)" fill="#F06CA8" width="0.416" height="12.556"/>
	
		<rect x="211.123" y="79.866" transform="matrix(0.3429 0.9394 -0.9394 0.3429 219.7937 -141.9127)" clip-path="url(#SVGID_4_)" fill="#F06CA8" width="0.416" height="12.556"/>
</g>
<g>
	<defs>
		<path id="SVGID_5_" d="M204.407,85.348l2.01,5.517c0.004-0.003,0.011-0.003,0.015-0.005c4.127-1.502,6.941-5.034,7.728-9.061
			L204.407,85.348z"/>
	</defs>
	<clipPath id="SVGID_6_">
		<use xlink:href="#SVGID_5_"  overflow="visible"/>
	</clipPath>
	
		<rect x="198.695" y="82.179" transform="matrix(0.3421 0.9397 -0.9397 0.3421 213.9725 -128.7076)" clip-path="url(#SVGID_6_)" fill="#F06CA8" width="0.417" height="12.553"/>
	
		<rect x="200.117" y="86.084" transform="matrix(0.3421 0.9397 -0.9397 0.3421 218.5785 -127.4738)" clip-path="url(#SVGID_6_)" fill="#F06CA8" width="0.417" height="12.556"/>
	
		<rect x="199.408" y="84.13" transform="matrix(0.3387 0.9409 -0.9409 0.3387 217.0647 -128.0309)" clip-path="url(#SVGID_6_)" fill="#F06CA8" width="0.415" height="12.554"/>
	
		<rect x="210.413" y="77.912" transform="matrix(0.3395 0.9406 -0.9406 0.3395 218.3112 -142.5029)" clip-path="url(#SVGID_6_)" fill="#FFFFFF" width="0.414" height="12.556"/>
	
		<rect x="211.835" y="81.819" transform="matrix(0.3429 0.9394 -0.9394 0.3429 222.0953 -141.2986)" clip-path="url(#SVGID_6_)" fill="#FFFFFF" width="0.416" height="12.556"/>
	
		<rect x="211.123" y="79.866" transform="matrix(0.3429 0.9394 -0.9394 0.3429 219.7937 -141.9127)" clip-path="url(#SVGID_6_)" fill="#FFFFFF" width="0.416" height="12.556"/>
</g>
<g>
	<defs>
		<path id="SVGID_7_" d="M190.38,77.185c0.005,0.009,0.007,0.017,0.011,0.026c0.022,0.062,0.031,0.132,0.017,0.2
			c-0.262,1.485-0.243,3.005,0.054,4.478l1.244,3.418c0.662,1.212,1.515,2.277,2.507,3.169l10.008-3.641l-4.077-11.205
			L190.38,77.185z"/>
	</defs>
	<clipPath id="SVGID_8_">
		<use xlink:href="#SVGID_7_"  overflow="visible"/>
	</clipPath>
	
		<rect x="194.431" y="70.463" transform="matrix(0.3421 0.9397 -0.9397 0.3421 200.1584 -132.4084)" clip-path="url(#SVGID_8_)" fill="#FFFFFF" width="0.417" height="12.553"/>
	
		<rect x="195.852" y="74.369" transform="matrix(0.3366 0.9416 -0.9416 0.3366 205.9978 -131.1192)" clip-path="url(#SVGID_8_)" fill="#FFFFFF" width="0.415" height="12.553"/>
	
		<rect x="197.275" y="78.273" transform="matrix(0.3395 0.9406 -0.9406 0.3395 209.9724 -129.9073)" clip-path="url(#SVGID_8_)" fill="#FFFFFF" width="0.414" height="12.556"/>
	
		<rect x="195.143" y="72.414" transform="matrix(0.3374 0.9414 -0.9414 0.3374 203.5192 -131.7538)" clip-path="url(#SVGID_8_)" fill="#FFFFFF" width="0.414" height="12.553"/>
	
		<rect x="196.564" y="76.32" transform="matrix(0.3429 0.9394 -0.9394 0.3429 206.8943 -130.5664)" clip-path="url(#SVGID_8_)" fill="#FFFFFF" width="0.416" height="12.556"/>
	
		<rect x="197.985" y="80.225" transform="matrix(0.3429 0.9394 -0.9394 0.3429 211.4968 -129.3362)" clip-path="url(#SVGID_8_)" fill="#FFFFFF" width="0.416" height="12.555"/>
	
		<rect x="206.148" y="66.196" transform="matrix(0.3395 0.9406 -0.9406 0.3395 204.4742 -146.2301)" clip-path="url(#SVGID_8_)" fill="#F06CA8" width="0.414" height="12.556"/>
	
		<rect x="207.57" y="70.102" transform="matrix(0.347 0.9379 -0.9379 0.347 207.3118 -144.9909)" clip-path="url(#SVGID_8_)" fill="#F06CA8" width="0.417" height="12.557"/>
	
		<rect x="208.99" y="74.009" transform="matrix(0.34 0.9404 -0.9404 0.34 213.5616 -143.7474)" clip-path="url(#SVGID_8_)" fill="#F06CA8" width="0.416" height="12.552"/>
	
		<rect x="206.859" y="68.151" transform="matrix(0.347 0.9379 -0.9379 0.347 205.0167 -145.5988)" clip-path="url(#SVGID_8_)" fill="#F06CA8" width="0.417" height="12.555"/>
	
		<rect x="208.28" y="72.057" transform="matrix(0.3366 0.9416 -0.9416 0.3366 212.0644 -144.3556)" clip-path="url(#SVGID_8_)" fill="#F06CA8" width="0.415" height="12.553"/>
	
		<rect x="209.701" y="75.962" transform="matrix(0.3359 0.9419 -0.9419 0.3359 216.8636 -143.0981)" clip-path="url(#SVGID_8_)" fill="#F06CA8" width="0.416" height="12.553"/>
</g>
<g>
	<defs>
		<path id="SVGID_9_" d="M200.143,73.63l4.077,11.205l10.042-3.657c0.176-1.245,0.159-2.53-0.069-3.811l-1.405-3.853
			c-0.706-1.233-1.626-2.34-2.724-3.258c-0.054-0.045-0.094-0.104-0.114-0.164c-0.004-0.01-0.008-0.02-0.01-0.027L200.143,73.63z"/>
	</defs>
	<clipPath id="SVGID_10_">
		<use xlink:href="#SVGID_9_"  overflow="visible"/>
	</clipPath>
	
		<rect x="194.431" y="70.463" transform="matrix(0.3421 0.9397 -0.9397 0.3421 200.1584 -132.4084)" clip-path="url(#SVGID_10_)" fill="#F06CA8" width="0.417" height="12.553"/>
	
		<rect x="195.852" y="74.369" transform="matrix(0.3366 0.9416 -0.9416 0.3366 205.9978 -131.1192)" clip-path="url(#SVGID_10_)" fill="#F06CA8" width="0.415" height="12.553"/>
	
		<rect x="197.275" y="78.273" transform="matrix(0.3395 0.9406 -0.9406 0.3395 209.9724 -129.9073)" clip-path="url(#SVGID_10_)" fill="#F06CA8" width="0.414" height="12.556"/>
	
		<rect x="195.143" y="72.414" transform="matrix(0.3374 0.9414 -0.9414 0.3374 203.5192 -131.7538)" clip-path="url(#SVGID_10_)" fill="#F06CA8" width="0.414" height="12.553"/>
	
		<rect x="196.564" y="76.32" transform="matrix(0.3429 0.9394 -0.9394 0.3429 206.8943 -130.5664)" clip-path="url(#SVGID_10_)" fill="#F06CA8" width="0.416" height="12.556"/>
	
		<rect x="197.985" y="80.225" transform="matrix(0.3429 0.9394 -0.9394 0.3429 211.4968 -129.3362)" clip-path="url(#SVGID_10_)" fill="#F06CA8" width="0.416" height="12.555"/>
	
		<rect x="206.148" y="66.196" transform="matrix(0.3395 0.9406 -0.9406 0.3395 204.4742 -146.2301)" clip-path="url(#SVGID_10_)" fill="#FFFFFF" width="0.414" height="12.556"/>
	
		<rect x="207.57" y="70.102" transform="matrix(0.347 0.9379 -0.9379 0.347 207.3118 -144.9909)" clip-path="url(#SVGID_10_)" fill="#FFFFFF" width="0.417" height="12.557"/>
	
		<rect x="208.99" y="74.009" transform="matrix(0.34 0.9404 -0.9404 0.34 213.5616 -143.7474)" clip-path="url(#SVGID_10_)" fill="#FFFFFF" width="0.416" height="12.552"/>
	
		<rect x="206.859" y="68.151" transform="matrix(0.347 0.9379 -0.9379 0.347 205.0167 -145.5988)" clip-path="url(#SVGID_10_)" fill="#FFFFFF" width="0.417" height="12.555"/>
	
		<rect x="208.28" y="72.057" transform="matrix(0.3366 0.9416 -0.9416 0.3366 212.0644 -144.3556)" clip-path="url(#SVGID_10_)" fill="#FFFFFF" width="0.415" height="12.553"/>
	
		<rect x="209.701" y="75.962" transform="matrix(0.3359 0.9419 -0.9419 0.3359 216.8636 -143.0981)" clip-path="url(#SVGID_10_)" fill="#FFFFFF" width="0.416" height="12.553"/>
</g>
<g>
	<defs>
		<path id="SVGID_11_" d="M186.084,66.06c-0.195,1.341-0.169,2.726,0.109,4.106l1.242,3.415c0.719,1.317,1.682,2.496,2.838,3.464
			c0.047,0.036,0.084,0.086,0.106,0.14l9.763-3.555l-4.077-11.201L186.084,66.06z"/>
	</defs>
	<clipPath id="SVGID_12_">
		<use xlink:href="#SVGID_11_"  overflow="visible"/>
	</clipPath>
	
		<rect x="190.168" y="58.745" transform="matrix(0.347 0.9379 -0.9379 0.347 185.2968 -136.0866)" clip-path="url(#SVGID_12_)" fill="#FFFFFF" width="0.417" height="12.556"/>
	
		<rect x="191.591" y="62.651" transform="matrix(0.341 0.9401 -0.9401 0.341 191.1949 -134.8775)" clip-path="url(#SVGID_12_)" fill="#FFFFFF" width="0.412" height="12.554"/>
	
		<rect x="193.011" y="66.558" transform="matrix(0.3387 0.9409 -0.9409 0.3387 196.3008 -133.6331)" clip-path="url(#SVGID_12_)" fill="#FFFFFF" width="0.415" height="12.553"/>
	
		<rect x="190.878" y="60.696" transform="matrix(0.3436 0.9391 -0.9391 0.3436 188.3193 -135.4893)" clip-path="url(#SVGID_12_)" fill="#FFFFFF" width="0.415" height="12.558"/>
	
		<rect x="192.299" y="64.604" transform="matrix(0.3429 0.9394 -0.9394 0.3429 193.0863 -134.259)" clip-path="url(#SVGID_12_)" fill="#FFFFFF" width="0.416" height="12.556"/>
	
		<rect x="193.72" y="68.509" transform="matrix(0.3421 0.9397 -0.9397 0.3421 197.8552 -133.026)" clip-path="url(#SVGID_12_)" fill="#FFFFFF" width="0.417" height="12.555"/>
	
		<rect x="201.884" y="54.482" transform="matrix(0.3374 0.9414 -0.9414 0.3374 191.1048 -149.9822)" clip-path="url(#SVGID_12_)" fill="#F06CA8" width="0.414" height="12.553"/>
	
		<rect x="203.306" y="58.386" transform="matrix(0.3402 0.9403 -0.9403 0.3402 195.0782 -148.7089)" clip-path="url(#SVGID_12_)" fill="#F06CA8" width="0.413" height="12.554"/>
	
		<rect x="204.726" y="62.292" transform="matrix(0.3429 0.9394 -0.9394 0.3429 199.0795 -147.4524)" clip-path="url(#SVGID_12_)" fill="#F06CA8" width="0.416" height="12.553"/>
	
		<rect x="202.596" y="56.432" transform="matrix(0.3493 0.937 -0.937 0.3493 190.7223 -149.2219)" clip-path="url(#SVGID_12_)" fill="#F06CA8" width="0.414" height="12.558"/>
	
		<rect x="204.016" y="60.338" transform="matrix(0.347 0.9379 -0.9379 0.347 195.8346 -148.034)" clip-path="url(#SVGID_12_)" fill="#F06CA8" width="0.417" height="12.557"/>
	
		<rect x="205.438" y="64.246" transform="matrix(0.3387 0.9409 -0.9409 0.3387 202.343 -146.8541)" clip-path="url(#SVGID_12_)" fill="#F06CA8" width="0.415" height="12.553"/>
</g>
<g>
	<defs>
		<path id="SVGID_13_" d="M196.065,62.429l4.077,11.201l9.797-3.564c-0.015-0.056-0.021-0.117-0.009-0.175
			c0.248-1.407,0.244-2.849-0.01-4.249l-1.401-3.851c-0.656-1.148-1.483-2.159-2.44-3.009L196.065,62.429z"/>
	</defs>
	<clipPath id="SVGID_14_">
		<use xlink:href="#SVGID_13_"  overflow="visible"/>
	</clipPath>
	
		<rect x="190.168" y="58.745" transform="matrix(0.347 0.9379 -0.9379 0.347 185.2968 -136.0866)" clip-path="url(#SVGID_14_)" fill="#F06CA8" width="0.417" height="12.556"/>
	
		<rect x="191.591" y="62.651" transform="matrix(0.341 0.9401 -0.9401 0.341 191.1949 -134.8775)" clip-path="url(#SVGID_14_)" fill="#F06CA8" width="0.412" height="12.554"/>
	
		<rect x="193.011" y="66.558" transform="matrix(0.3387 0.9409 -0.9409 0.3387 196.3008 -133.6331)" clip-path="url(#SVGID_14_)" fill="#F06CA8" width="0.415" height="12.553"/>
	
		<rect x="190.878" y="60.696" transform="matrix(0.3436 0.9391 -0.9391 0.3436 188.3193 -135.4893)" clip-path="url(#SVGID_14_)" fill="#F06CA8" width="0.415" height="12.558"/>
	
		<rect x="192.299" y="64.604" transform="matrix(0.3429 0.9394 -0.9394 0.3429 193.0863 -134.259)" clip-path="url(#SVGID_14_)" fill="#F06CA8" width="0.416" height="12.556"/>
	
		<rect x="193.72" y="68.509" transform="matrix(0.3421 0.9397 -0.9397 0.3421 197.8552 -133.026)" clip-path="url(#SVGID_14_)" fill="#F06CA8" width="0.417" height="12.555"/>
	
		<rect x="201.884" y="54.482" transform="matrix(0.3374 0.9414 -0.9414 0.3374 191.1048 -149.9822)" clip-path="url(#SVGID_14_)" fill="#FFFFFF" width="0.414" height="12.553"/>
	
		<rect x="203.306" y="58.386" transform="matrix(0.3402 0.9403 -0.9403 0.3402 195.0782 -148.7089)" clip-path="url(#SVGID_14_)" fill="#FFFFFF" width="0.413" height="12.554"/>
	
		<rect x="204.726" y="62.292" transform="matrix(0.3429 0.9394 -0.9394 0.3429 199.0795 -147.4524)" clip-path="url(#SVGID_14_)" fill="#FFFFFF" width="0.416" height="12.553"/>
	
		<rect x="202.596" y="56.432" transform="matrix(0.3493 0.937 -0.937 0.3493 190.7223 -149.2219)" clip-path="url(#SVGID_14_)" fill="#FFFFFF" width="0.414" height="12.558"/>
	
		<rect x="204.016" y="60.338" transform="matrix(0.347 0.9379 -0.9379 0.347 195.8346 -148.034)" clip-path="url(#SVGID_14_)" fill="#FFFFFF" width="0.417" height="12.557"/>
	
		<rect x="205.438" y="64.246" transform="matrix(0.3387 0.9409 -0.9409 0.3387 202.343 -146.8541)" clip-path="url(#SVGID_14_)" fill="#FFFFFF" width="0.415" height="12.553"/>
</g>
<g>
	<defs>
		<path id="SVGID_15_" d="M186.193,65.438l9.686-3.524l-1.991-5.465C189.794,57.946,186.994,61.444,186.193,65.438"/>
	</defs>
	<clipPath id="SVGID_16_">
		<use xlink:href="#SVGID_15_"  overflow="visible"/>
	</clipPath>
	
		<rect x="188.745" y="54.84" transform="matrix(0.3408 0.9401 -0.9401 0.3408 182.0165 -137.3531)" clip-path="url(#SVGID_16_)" fill="#FFFFFF" width="0.415" height="12.555"/>
	
		<rect x="188.034" y="52.888" transform="matrix(0.3421 0.9397 -0.9397 0.3421 179.4351 -137.9606)" clip-path="url(#SVGID_16_)" fill="#FFFFFF" width="0.417" height="12.552"/>
	
		<rect x="189.455" y="56.793" transform="matrix(0.3366 0.9416 -0.9416 0.3366 185.2031 -136.7549)" clip-path="url(#SVGID_16_)" fill="#FFFFFF" width="0.415" height="12.551"/>
	
		<rect x="200.462" y="50.575" transform="matrix(0.3429 0.9394 -0.9394 0.3429 185.2715 -151.1471)" clip-path="url(#SVGID_16_)" fill="#F06CA8" width="0.416" height="12.553"/>
	
		<rect x="199.752" y="48.621" transform="matrix(0.3478 0.9376 -0.9376 0.3478 181.8922 -151.671)" clip-path="url(#SVGID_16_)" fill="#F06CA8" width="0.416" height="12.558"/>
	
		<rect x="201.173" y="52.528" transform="matrix(0.3478 0.9376 -0.9376 0.3478 186.481 -150.455)" clip-path="url(#SVGID_16_)" fill="#F06CA8" width="0.416" height="12.555"/>
</g>
<g>
	<defs>
		<path id="SVGID_17_" d="M193.904,56.442c-0.004,0.002-0.01,0.004-0.017,0.007l1.991,5.465l9.719-3.538
			c-2.129-1.705-4.806-2.662-7.572-2.662C196.655,55.714,195.265,55.948,193.904,56.442"/>
	</defs>
	<clipPath id="SVGID_18_">
		<use xlink:href="#SVGID_17_"  overflow="visible"/>
	</clipPath>
	
		<rect x="188.745" y="54.84" transform="matrix(0.3408 0.9401 -0.9401 0.3408 182.0165 -137.3531)" clip-path="url(#SVGID_18_)" fill="#F06CA8" width="0.415" height="12.555"/>
	
		<rect x="188.034" y="52.888" transform="matrix(0.3421 0.9397 -0.9397 0.3421 179.4351 -137.9606)" clip-path="url(#SVGID_18_)" fill="#F06CA8" width="0.417" height="12.552"/>
	
		<rect x="189.455" y="56.793" transform="matrix(0.3366 0.9416 -0.9416 0.3366 185.2031 -136.7549)" clip-path="url(#SVGID_18_)" fill="#F06CA8" width="0.415" height="12.551"/>
	
		<rect x="200.462" y="50.575" transform="matrix(0.3429 0.9394 -0.9394 0.3429 185.2715 -151.1471)" clip-path="url(#SVGID_18_)" fill="#FFFFFF" width="0.416" height="12.553"/>
	
		<rect x="199.752" y="48.621" transform="matrix(0.3478 0.9376 -0.9376 0.3478 181.8922 -151.671)" clip-path="url(#SVGID_18_)" fill="#FFFFFF" width="0.416" height="12.558"/>
	
		<rect x="201.173" y="52.528" transform="matrix(0.3478 0.9376 -0.9376 0.3478 186.481 -150.455)" clip-path="url(#SVGID_18_)" fill="#FFFFFF" width="0.416" height="12.555"/>
</g>
<g>
	<defs>
		
			<rect id="SVGID_19_" x="182.241" y="61.761" transform="matrix(-0.342 -0.9397 0.9397 -0.342 199.3494 286.8962)" width="35.769" height="23.78"/>
	</defs>
	<clipPath id="SVGID_20_">
		<use xlink:href="#SVGID_19_"  overflow="visible"/>
	</clipPath>
	<path clip-path="url(#SVGID_20_)" fill="#FFFFFF" d="M213.356,75.174c-0.741-2.04-1.987-3.749-3.537-5.053
		c0.354-1.993,0.204-4.103-0.538-6.144c-2.249-6.183-9.085-9.37-15.27-7.118c-6.182,2.25-9.37,9.086-7.118,15.268
		c0.742,2.041,1.984,3.75,3.538,5.052c-0.356,1.994-0.206,4.104,0.537,6.145c2.249,6.183,9.085,9.37,15.267,7.12
		C212.42,88.194,215.609,81.356,213.356,75.174 M212.657,75.428c2.108,5.787-0.89,12.21-6.674,14.315
		c-5.787,2.105-12.211-0.888-14.317-6.674c-0.669-1.842-0.842-3.833-0.502-5.76c0.023-0.133,0.013-0.265-0.032-0.384
		c-0.044-0.123-0.12-0.232-0.224-0.318c-1.498-1.256-2.647-2.892-3.317-4.734c-2.104-5.787,0.889-12.209,6.679-14.314
		c5.784-2.106,12.207,0.886,14.312,6.674c0.673,1.842,0.847,3.835,0.504,5.76c-0.022,0.132-0.011,0.265,0.035,0.386
		c0.041,0.12,0.12,0.23,0.221,0.316C210.841,71.949,211.986,73.586,212.657,75.428"/>
</g>
<g>
	<defs>
		
			<rect id="SVGID_21_" x="147.699" y="167.039" transform="matrix(-0.5878 -0.809 0.809 -0.5878 104.3433 426.9846)" width="26.508" height="39.74"/>
	</defs>
	<clipPath id="SVGID_22_">
		<use xlink:href="#SVGID_21_"  overflow="visible"/>
	</clipPath>
	<g clip-path="url(#SVGID_22_)">
		<defs>
			
				<rect id="SVGID_23_" x="141.083" y="173.652" transform="matrix(-0.8091 0.5877 -0.5877 -0.8091 401.0221 243.5351)" width="39.74" height="26.511"/>
		</defs>
		<clipPath id="SVGID_24_">
			<use xlink:href="#SVGID_23_"  overflow="visible"/>
		</clipPath>
		<g clip-path="url(#SVGID_24_)">
			
				<image overflow="visible" width="427" height="285" xlink:href="B94377CFC6412848.png"  transform="matrix(0.0753 -0.0547 0.0547 0.0753 137.0854 187.8643)">
			</image>
		</g>
	</g>
</g>
<g>
	<defs>
		<rect id="SVGID_25_" x="0.351" y="0.771" width="219.15" height="218.729"/>
	</defs>
	<clipPath id="SVGID_26_">
		<use xlink:href="#SVGID_25_"  overflow="visible"/>
	</clipPath>
	<path clip-path="url(#SVGID_26_)" fill="#FFFFFF" d="M117.579,219.5H87.707c-2.722,0-4.935-2.211-4.935-4.928v-14.123
		c0-4.333,3.532-7.86,7.87-7.86c4.338,0,7.868,3.527,7.868,7.86v5.596c0,2.275,1.855,4.128,4.133,4.128
		c2.279,0,4.133-1.853,4.133-4.128v-5.596c0-4.333,3.532-7.86,7.869-7.86c4.338,0,7.868,3.527,7.868,7.86v14.123
		C122.513,217.289,120.298,219.5,117.579,219.5z M90.642,193.925c-3.603,0-6.534,2.93-6.534,6.524v14.123
		c0,1.979,1.615,3.591,3.599,3.591h29.872c1.985,0,3.601-1.611,3.601-3.591v-14.123c0-3.595-2.933-6.524-6.535-6.524
		c-3.602,0-6.533,2.93-6.533,6.524v5.596c0,3.014-2.453,5.464-5.469,5.464c-3.015,0-5.467-2.45-5.467-5.464v-5.596
		C97.176,196.854,94.244,193.925,90.642,193.925z"/>
</g>
<g>
	<defs>
		<path id="SVGID_27_" d="M38.513,166.325l-3.348,4.134l3.1,2.508l3.012-3.72c0.138-0.17,0.391-0.198,0.562-0.059l1.262,1.021
			l2.51-3.098l-1.676-1.358c-0.71-0.576-1.57-0.857-2.421-0.857C40.389,164.896,39.274,165.388,38.513,166.325"/>
	</defs>
	<clipPath id="SVGID_28_">
		<use xlink:href="#SVGID_27_"  overflow="visible"/>
	</clipPath>
	
		<rect x="33.138" y="164.014" transform="matrix(-0.7771 -0.6294 0.6294 -0.7771 -33.1989 317.1198)" clip-path="url(#SVGID_28_)" fill="#FFFFFF" width="12.851" height="0.851"/>
	
		<rect x="30.458" y="167.32" transform="matrix(-0.777 -0.6295 0.6295 -0.777 -40.0544 321.2995)" clip-path="url(#SVGID_28_)" fill="#FFFFFF" width="12.854" height="0.849"/>
	
		<rect x="34.475" y="162.36" transform="matrix(-0.7772 -0.6293 0.6293 -0.7772 -29.7482 315.0389)" clip-path="url(#SVGID_28_)" fill="#FFFFFF" width="12.851" height="0.852"/>
	
		<rect x="31.797" y="165.668" transform="matrix(-0.7771 -0.6294 0.6294 -0.7771 -36.605 319.2219)" clip-path="url(#SVGID_28_)" fill="#FFFFFF" width="12.852" height="0.849"/>
	
		<rect x="29.121" y="168.974" transform="matrix(-0.7773 -0.6292 0.6292 -0.7773 -43.4081 323.4336)" clip-path="url(#SVGID_28_)" fill="#FFFFFF" width="12.85" height="0.852"/>
	
		<rect x="43.055" y="172.046" transform="matrix(-0.7771 -0.6293 0.6293 -0.7771 -20.6052 337.6446)" clip-path="url(#SVGID_28_)" fill="#FFFFFF" width="12.853" height="0.849"/>
	
		<rect x="40.378" y="175.352" transform="matrix(-0.7772 -0.6293 0.6293 -0.7772 -27.4342 341.8405)" clip-path="url(#SVGID_28_)" fill="#FFFFFF" width="12.853" height="0.851"/>
	
		<rect x="44.394" y="170.392" transform="matrix(-0.7771 -0.6294 0.6294 -0.7771 -17.201 335.5435)" clip-path="url(#SVGID_28_)" fill="#FFFFFF" width="12.852" height="0.852"/>
	
		<rect x="41.717" y="173.699" transform="matrix(-0.7771 -0.6294 0.6294 -0.7771 -24.0396 339.7338)" clip-path="url(#SVGID_28_)" fill="#FFFFFF" width="12.852" height="0.849"/>
	
		<rect x="39.039" y="177.004" transform="matrix(-0.7773 -0.6292 0.6292 -0.7773 -30.8306 343.945)" clip-path="url(#SVGID_28_)" fill="#FFFFFF" width="12.852" height="0.852"/>
</g>
<g>
	<defs>
		<path id="SVGID_29_" d="M27.805,179.549c-0.233,0.288-0.417,0.598-0.555,0.921l4.555,3.691l0.754-0.934l-1.262-1.019
			c-0.171-0.141-0.198-0.393-0.059-0.564l7.026-8.678l-3.1-2.508L27.805,179.549z"/>
	</defs>
	<clipPath id="SVGID_30_">
		<use xlink:href="#SVGID_29_"  overflow="visible"/>
	</clipPath>
	
		<rect x="27.782" y="170.627" transform="matrix(-0.7771 -0.6294 0.6294 -0.7771 -46.8621 325.5054)" clip-path="url(#SVGID_30_)" fill="#FFFFFF" width="12.852" height="0.848"/>
	
		<rect x="25.104" y="173.932" transform="matrix(-0.7772 -0.6293 0.6293 -0.7772 -53.6898 329.7028)" clip-path="url(#SVGID_30_)" fill="#FFFFFF" width="12.854" height="0.851"/>
	
		<rect x="22.426" y="177.239" transform="matrix(-0.7772 -0.6293 0.6293 -0.7772 -60.5288 333.8924)" clip-path="url(#SVGID_30_)" fill="#FFFFFF" width="12.854" height="0.848"/>
	
		<rect x="26.443" y="172.279" transform="matrix(-0.7771 -0.6294 0.6294 -0.7771 -50.2903 327.5953)" clip-path="url(#SVGID_30_)" fill="#FFFFFF" width="12.853" height="0.849"/>
	
		<rect x="23.766" y="175.585" transform="matrix(-0.7772 -0.6293 0.6293 -0.7772 -57.104 331.8026)" clip-path="url(#SVGID_30_)" fill="#FFFFFF" width="12.853" height="0.852"/>
	
		<rect x="21.089" y="178.891" transform="matrix(-0.7772 -0.6292 0.6292 -0.7772 -63.9329 335.998)" clip-path="url(#SVGID_30_)" fill="#FFFFFF" width="12.852" height="0.852"/>
	
		<rect x="37.702" y="178.658" transform="matrix(-0.7773 -0.6292 0.6292 -0.7773 -34.2514 346.0424)" clip-path="url(#SVGID_30_)" fill="#FFFFFF" width="12.85" height="0.853"/>
	
		<rect x="35.023" y="181.964" transform="matrix(-0.7771 -0.6293 0.6293 -0.7771 -41.1199 350.2191)" clip-path="url(#SVGID_30_)" fill="#FFFFFF" width="12.852" height="0.853"/>
	
		<rect x="32.347" y="185.272" transform="matrix(-0.7771 -0.6294 0.6294 -0.7771 -47.9648 354.4052)" clip-path="url(#SVGID_30_)" fill="#FFFFFF" width="12.851" height="0.848"/>
	
		<rect x="36.362" y="180.311" transform="matrix(-0.7772 -0.6292 0.6292 -0.7772 -37.6779 348.1353)" clip-path="url(#SVGID_30_)" fill="#FFFFFF" width="12.851" height="0.852"/>
	
		<rect x="33.685" y="183.618" transform="matrix(-0.7773 -0.6291 0.6291 -0.7773 -44.4964 352.3365)" clip-path="url(#SVGID_30_)" fill="#FFFFFF" width="12.85" height="0.852"/>
	
		<rect x="31.008" y="186.924" transform="matrix(-0.7772 -0.6293 0.6293 -0.7772 -51.3757 356.5075)" clip-path="url(#SVGID_30_)" fill="#FFFFFF" width="12.85" height="0.852"/>
</g>
<g>
	<defs>
		<path id="SVGID_31_" d="M28.374,184.972l1.674,1.358l1.756-2.169l-4.555-3.691C26.597,182.014,27.009,183.868,28.374,184.972"/>
	</defs>
	<clipPath id="SVGID_32_">
		<use xlink:href="#SVGID_31_"  overflow="visible"/>
	</clipPath>
	
		<rect x="19.75" y="180.544" transform="matrix(-0.7773 -0.6292 0.6292 -0.7773 -67.3397 338.1005)" clip-path="url(#SVGID_32_)" fill="#FFFFFF" width="12.852" height="0.852"/>
	
		<rect x="18.412" y="182.198" transform="matrix(-0.7773 -0.6291 0.6291 -0.7773 -70.7538 340.201)" clip-path="url(#SVGID_32_)" fill="#FFFFFF" width="12.851" height="0.852"/>
	
		<rect x="29.67" y="188.578" transform="matrix(-0.7771 -0.6294 0.6294 -0.7771 -54.804 358.5974)" clip-path="url(#SVGID_32_)" fill="#FFFFFF" width="12.851" height="0.851"/>
	
		<rect x="28.33" y="190.229" transform="matrix(-0.7772 -0.6292 0.6292 -0.7772 -58.1926 360.7083)" clip-path="url(#SVGID_32_)" fill="#FFFFFF" width="12.851" height="0.852"/>
</g>
<g>
	<defs>
		<path id="SVGID_33_" d="M43.101,170.21l4.318,3.498c0.854,0.691,2.112,0.558,2.803-0.296c0.692-0.854,0.562-2.115-0.294-2.805
			l-4.317-3.495L43.101,170.21z"/>
	</defs>
	<clipPath id="SVGID_34_">
		<use xlink:href="#SVGID_33_"  overflow="visible"/>
	</clipPath>
	
		<rect x="33.136" y="164.014" transform="matrix(-0.7771 -0.6294 0.6294 -0.7771 -33.1893 317.1245)" clip-path="url(#SVGID_34_)" fill="#FFFFFF" width="12.852" height="0.851"/>
	
		<rect x="34.475" y="162.36" transform="matrix(-0.7772 -0.6293 0.6293 -0.7772 -29.7491 315.0386)" clip-path="url(#SVGID_34_)" fill="#FFFFFF" width="12.851" height="0.853"/>
	
		<rect x="31.797" y="165.668" transform="matrix(-0.7771 -0.6294 0.6294 -0.7771 -36.6059 319.2216)" clip-path="url(#SVGID_34_)" fill="#FFFFFF" width="12.852" height="0.85"/>
	
		<rect x="43.055" y="172.046" transform="matrix(-0.7771 -0.6293 0.6293 -0.7771 -20.6052 337.6446)" clip-path="url(#SVGID_34_)" fill="#FFFFFF" width="12.853" height="0.849"/>
	
		<rect x="44.394" y="170.392" transform="matrix(-0.7771 -0.6294 0.6294 -0.7771 -17.201 335.5435)" clip-path="url(#SVGID_34_)" fill="#FFFFFF" width="12.852" height="0.852"/>
	
		<rect x="41.717" y="173.699" transform="matrix(-0.7771 -0.6294 0.6294 -0.7771 -24.0396 339.7338)" clip-path="url(#SVGID_34_)" fill="#FFFFFF" width="12.852" height="0.849"/>
</g>
<g>
	<defs>
		
			<rect id="SVGID_35_" x="30.761" y="187.112" transform="matrix(-0.7772 -0.6293 0.6293 -0.7772 -52.1175 356.9674)" width="12.761" height="1.199"/>
	</defs>
	<clipPath id="SVGID_36_">
		<use xlink:href="#SVGID_35_"  overflow="visible"/>
	</clipPath>
	
		<rect x="21.089" y="178.891" transform="matrix(-0.7772 -0.6292 0.6292 -0.7772 -63.9329 335.998)" clip-path="url(#SVGID_36_)" fill="#FFFFFF" width="12.852" height="0.852"/>
	
		<rect x="31.008" y="186.924" transform="matrix(-0.7772 -0.6293 0.6293 -0.7772 -51.3757 356.5075)" clip-path="url(#SVGID_36_)" fill="#FFFFFF" width="12.85" height="0.852"/>
	
		<rect x="40.926" y="194.955" transform="matrix(-0.7771 -0.6293 0.6293 -0.7771 -38.8045 377.0175)" clip-path="url(#SVGID_36_)" fill="#FFFFFF" width="12.852" height="0.848"/>
</g>
<g>
	<defs>
		
			<rect id="SVGID_37_" x="29.505" y="187.866" transform="matrix(-0.7772 -0.6292 0.6292 -0.7772 -55.3104 358.939)" width="12.761" height="2.79"/>
	</defs>
	<clipPath id="SVGID_38_">
		<use xlink:href="#SVGID_37_"  overflow="visible"/>
	</clipPath>
	
		<rect x="19.75" y="180.544" transform="matrix(-0.7773 -0.6292 0.6292 -0.7773 -67.3397 338.1005)" clip-path="url(#SVGID_38_)" fill="#FFFFFF" width="12.852" height="0.852"/>
	
		<rect x="18.412" y="182.198" transform="matrix(-0.7773 -0.6291 0.6291 -0.7773 -70.7538 340.201)" clip-path="url(#SVGID_38_)" fill="#FFFFFF" width="12.851" height="0.852"/>
	
		<rect x="29.67" y="188.578" transform="matrix(-0.7771 -0.6294 0.6294 -0.7771 -54.804 358.5974)" clip-path="url(#SVGID_38_)" fill="#FFFFFF" width="12.851" height="0.851"/>
	
		<rect x="28.33" y="190.229" transform="matrix(-0.7772 -0.6292 0.6292 -0.7772 -58.1926 360.7083)" clip-path="url(#SVGID_38_)" fill="#FFFFFF" width="12.851" height="0.852"/>
	
		<rect x="39.587" y="196.608" transform="matrix(-0.777 -0.6295 0.6295 -0.777 -42.2654 379.0952)" clip-path="url(#SVGID_38_)" fill="#FFFFFF" width="12.853" height="0.852"/>
	
		<rect x="38.25" y="198.262" transform="matrix(-0.7772 -0.6293 0.6293 -0.7772 -45.6305 381.2183)" clip-path="url(#SVGID_38_)" fill="#FFFFFF" width="12.85" height="0.851"/>
</g>
<g>
	<defs>
		<path id="SVGID_39_" d="M58.282,179.938c-0.694,0.855-0.562,2.115,0.294,2.806l4.362,3.531l2.51-3.098l-4.362-3.532
			c-0.367-0.302-0.811-0.442-1.253-0.442C59.252,179.202,58.675,179.451,58.282,179.938"/>
	</defs>
	<clipPath id="SVGID_40_">
		<use xlink:href="#SVGID_39_"  overflow="visible"/>
	</clipPath>
	
		<rect x="52.976" y="180.077" transform="matrix(-0.7771 -0.6293 0.6293 -0.7771 -8.0365 358.1589)" clip-path="url(#SVGID_40_)" fill="#FFFFFF" width="12.85" height="0.852"/>
	
		<rect x="54.312" y="178.424" transform="matrix(-0.7771 -0.6294 0.6294 -0.7771 -4.6226 356.0631)" clip-path="url(#SVGID_40_)" fill="#FFFFFF" width="12.852" height="0.851"/>
	
		<rect x="51.634" y="181.731" transform="matrix(-0.7771 -0.6293 0.6293 -0.7771 -11.4537 360.2574)" clip-path="url(#SVGID_40_)" fill="#FFFFFF" width="12.853" height="0.851"/>
	
		<rect x="62.892" y="188.111" transform="matrix(-0.7771 -0.6294 0.6294 -0.7771 4.5289 378.6742)" clip-path="url(#SVGID_40_)" fill="#FFFFFF" width="12.852" height="0.849"/>
	
		<rect x="64.232" y="186.457" transform="matrix(-0.7771 -0.6294 0.6294 -0.7771 7.951 376.5804)" clip-path="url(#SVGID_40_)" fill="#FFFFFF" width="12.851" height="0.85"/>
	
		<rect x="61.553" y="189.761" transform="matrix(-0.7771 -0.6294 0.6294 -0.7771 1.1095 380.767)" clip-path="url(#SVGID_40_)" fill="#FFFFFF" width="12.852" height="0.852"/>
</g>
<g>
	<defs>
		
			<rect id="SVGID_41_" x="40.677" y="195.143" transform="matrix(-0.7772 -0.6292 0.6292 -0.7772 -39.5349 377.4857)" width="12.763" height="1.197"/>
	</defs>
	<clipPath id="SVGID_42_">
		<use xlink:href="#SVGID_41_"  overflow="visible"/>
	</clipPath>
	
		<rect x="31.008" y="186.924" transform="matrix(-0.7772 -0.6293 0.6293 -0.7772 -51.3757 356.5075)" clip-path="url(#SVGID_42_)" fill="#FFFFFF" width="12.85" height="0.852"/>
	
		<rect x="40.926" y="194.955" transform="matrix(-0.7771 -0.6293 0.6293 -0.7771 -38.8045 377.0175)" clip-path="url(#SVGID_42_)" fill="#FFFFFF" width="12.852" height="0.848"/>
	
		<rect x="50.844" y="202.987" transform="matrix(-0.7771 -0.6294 0.6294 -0.7771 -26.244 397.5299)" clip-path="url(#SVGID_42_)" fill="#FFFFFF" width="12.852" height="0.85"/>
</g>
<g>
	<defs>
		
			<rect id="SVGID_43_" x="39.422" y="195.894" transform="matrix(-0.777 -0.6295 0.6295 -0.777 -42.8044 379.4181)" width="12.764" height="2.794"/>
	</defs>
	<clipPath id="SVGID_44_">
		<use xlink:href="#SVGID_43_"  overflow="visible"/>
	</clipPath>
	
		<rect x="29.67" y="188.578" transform="matrix(-0.7771 -0.6294 0.6294 -0.7771 -54.804 358.5974)" clip-path="url(#SVGID_44_)" fill="#FFFFFF" width="12.851" height="0.851"/>
	
		<rect x="28.33" y="190.229" transform="matrix(-0.7772 -0.6292 0.6292 -0.7772 -58.1926 360.7083)" clip-path="url(#SVGID_44_)" fill="#FFFFFF" width="12.851" height="0.852"/>
	
		<rect x="39.587" y="196.608" transform="matrix(-0.777 -0.6295 0.6295 -0.777 -42.2654 379.0952)" clip-path="url(#SVGID_44_)" fill="#FFFFFF" width="12.853" height="0.852"/>
	
		<rect x="38.25" y="198.262" transform="matrix(-0.7772 -0.6293 0.6293 -0.7772 -45.6305 381.2183)" clip-path="url(#SVGID_44_)" fill="#FFFFFF" width="12.85" height="0.851"/>
	
		<rect x="49.506" y="204.642" transform="matrix(-0.7772 -0.6293 0.6293 -0.7772 -29.6439 399.6382)" clip-path="url(#SVGID_44_)" fill="#FFFFFF" width="12.853" height="0.851"/>
	
		<rect x="48.169" y="206.294" transform="matrix(-0.7772 -0.6293 0.6293 -0.7772 -33.0676 401.7301)" clip-path="url(#SVGID_44_)" fill="#FFFFFF" width="12.849" height="0.851"/>
</g>
<g>
	<defs>
		<path id="SVGID_45_" d="M62.938,186.274l1.216,0.987c0.171,0.136,0.2,0.388,0.059,0.559l-3.012,3.723l3.1,2.509l3.346-4.133
			c1.338-1.651,1.084-4.084-0.57-5.424l-1.63-1.318L62.938,186.274z"/>
	</defs>
	<clipPath id="SVGID_46_">
		<use xlink:href="#SVGID_45_"  overflow="visible"/>
	</clipPath>
	
		<rect x="52.976" y="180.077" transform="matrix(-0.7771 -0.6293 0.6293 -0.7771 -8.0365 358.1589)" clip-path="url(#SVGID_46_)" fill="#FFFFFF" width="12.85" height="0.852"/>
	
		<rect x="50.296" y="183.384" transform="matrix(-0.7772 -0.6292 0.6292 -0.7772 -14.8529 362.3613)" clip-path="url(#SVGID_46_)" fill="#FFFFFF" width="12.852" height="0.853"/>
	
		<rect x="54.312" y="178.424" transform="matrix(-0.7771 -0.6294 0.6294 -0.7771 -4.6226 356.0631)" clip-path="url(#SVGID_46_)" fill="#FFFFFF" width="12.852" height="0.851"/>
	
		<rect x="51.634" y="181.731" transform="matrix(-0.7771 -0.6293 0.6293 -0.7771 -11.4537 360.2574)" clip-path="url(#SVGID_46_)" fill="#FFFFFF" width="12.853" height="0.851"/>
	
		<rect x="48.958" y="185.038" transform="matrix(-0.7771 -0.6294 0.6294 -0.7771 -18.3003 364.4457)" clip-path="url(#SVGID_46_)" fill="#FFFFFF" width="12.852" height="0.851"/>
	
		<rect x="62.892" y="188.111" transform="matrix(-0.7771 -0.6294 0.6294 -0.7771 4.5289 378.6742)" clip-path="url(#SVGID_46_)" fill="#FFFFFF" width="12.852" height="0.849"/>
	
		<rect x="60.214" y="191.415" transform="matrix(-0.7771 -0.6293 0.6293 -0.7771 -2.2999 382.8662)" clip-path="url(#SVGID_46_)" fill="#FFFFFF" width="12.853" height="0.85"/>
	
		<rect x="64.232" y="186.457" transform="matrix(-0.7771 -0.6294 0.6294 -0.7771 7.951 376.5804)" clip-path="url(#SVGID_46_)" fill="#FFFFFF" width="12.851" height="0.85"/>
	
		<rect x="61.553" y="189.761" transform="matrix(-0.7771 -0.6294 0.6294 -0.7771 1.1095 380.767)" clip-path="url(#SVGID_46_)" fill="#FFFFFF" width="12.852" height="0.852"/>
	
		<rect x="58.876" y="193.067" transform="matrix(-0.7771 -0.6294 0.6294 -0.7771 -5.7293 384.9583)" clip-path="url(#SVGID_46_)" fill="#FFFFFF" width="12.852" height="0.853"/>
</g>
<g>
	<defs>
		<path id="SVGID_47_" d="M54.174,200.221c-0.138,0.17-0.389,0.195-0.56,0.059l-1.219-0.987l-0.753,0.931l4.511,3.654
			c0.289-0.202,0.555-0.446,0.787-0.734l7.362-9.091l-3.1-2.509L54.174,200.221z"/>
	</defs>
	<clipPath id="SVGID_48_">
		<use xlink:href="#SVGID_47_"  overflow="visible"/>
	</clipPath>
	
		<rect x="47.619" y="186.689" transform="matrix(-0.7772 -0.6293 0.6293 -0.7772 -21.6993 366.5471)" clip-path="url(#SVGID_48_)" fill="#FFFFFF" width="12.851" height="0.852"/>
	
		<rect x="44.941" y="189.996" transform="matrix(-0.7771 -0.6294 0.6294 -0.7771 -28.5585 370.7298)" clip-path="url(#SVGID_48_)" fill="#FFFFFF" width="12.852" height="0.851"/>
	
		<rect x="42.265" y="193.301" transform="matrix(-0.7771 -0.6294 0.6294 -0.7771 -35.405 374.9145)" clip-path="url(#SVGID_48_)" fill="#FFFFFF" width="12.852" height="0.852"/>
	
		<rect x="46.281" y="188.344" transform="matrix(-0.7772 -0.6293 0.6293 -0.7772 -25.1164 368.6459)" clip-path="url(#SVGID_48_)" fill="#FFFFFF" width="12.85" height="0.851"/>
	
		<rect x="43.604" y="191.651" transform="matrix(-0.7771 -0.6294 0.6294 -0.7771 -31.975 372.8267)" clip-path="url(#SVGID_48_)" fill="#FFFFFF" width="12.851" height="0.849"/>
	
		<rect x="40.926" y="194.955" transform="matrix(-0.7771 -0.6293 0.6293 -0.7771 -38.8045 377.0175)" clip-path="url(#SVGID_48_)" fill="#FFFFFF" width="12.852" height="0.848"/>
	
		<rect x="57.54" y="194.723" transform="matrix(-0.7772 -0.6293 0.6293 -0.7772 -9.1311 387.0626)" clip-path="url(#SVGID_48_)" fill="#FFFFFF" width="12.849" height="0.851"/>
	
		<rect x="54.861" y="198.029" transform="matrix(-0.7771 -0.6294 0.6294 -0.7771 -15.9843 391.2484)" clip-path="url(#SVGID_48_)" fill="#FFFFFF" width="12.851" height="0.852"/>
	
		<rect x="52.183" y="201.335" transform="matrix(-0.7773 -0.6292 0.6292 -0.7773 -22.7831 395.4557)" clip-path="url(#SVGID_48_)" fill="#FFFFFF" width="12.851" height="0.851"/>
	
		<rect x="56.199" y="196.374" transform="matrix(-0.7771 -0.6294 0.6294 -0.7771 -12.5755 389.1437)" clip-path="url(#SVGID_48_)" fill="#FFFFFF" width="12.852" height="0.849"/>
	
		<rect x="53.522" y="199.68" transform="matrix(-0.7771 -0.6294 0.6294 -0.7771 -19.4052 393.3386)" clip-path="url(#SVGID_48_)" fill="#FFFFFF" width="12.852" height="0.852"/>
	
		<rect x="50.844" y="202.987" transform="matrix(-0.7771 -0.6294 0.6294 -0.7771 -26.244 397.5299)" clip-path="url(#SVGID_48_)" fill="#FFFFFF" width="12.852" height="0.85"/>
</g>
<g>
	<defs>
		<path id="SVGID_49_" d="M49.884,202.395l1.632,1.319c1.364,1.104,3.263,1.121,4.637,0.163l-4.511-3.654L49.884,202.395z"/>
	</defs>
	<clipPath id="SVGID_50_">
		<use xlink:href="#SVGID_49_"  overflow="visible"/>
	</clipPath>
	
		<rect x="39.587" y="196.608" transform="matrix(-0.777 -0.6295 0.6295 -0.777 -42.2654 379.0952)" clip-path="url(#SVGID_50_)" fill="#FFFFFF" width="12.853" height="0.852"/>
	
		<rect x="38.25" y="198.262" transform="matrix(-0.7772 -0.6293 0.6293 -0.7772 -45.6305 381.2183)" clip-path="url(#SVGID_50_)" fill="#FFFFFF" width="12.85" height="0.851"/>
	
		<rect x="49.506" y="204.642" transform="matrix(-0.7772 -0.6293 0.6293 -0.7772 -29.6439 399.6382)" clip-path="url(#SVGID_50_)" fill="#FFFFFF" width="12.853" height="0.851"/>
	
		<rect x="48.169" y="206.294" transform="matrix(-0.7772 -0.6293 0.6293 -0.7772 -33.0676 401.7301)" clip-path="url(#SVGID_50_)" fill="#FFFFFF" width="12.849" height="0.851"/>
</g>
<g>
	<defs>
		
			<rect id="SVGID_51_" x="28.623" y="171.94" transform="matrix(-0.7771 -0.6293 0.6293 -0.7771 -31.4996 358.2425)" width="38.118" height="25.518"/>
	</defs>
	<clipPath id="SVGID_52_">
		<use xlink:href="#SVGID_51_"  overflow="visible"/>
	</clipPath>
	<path clip-path="url(#SVGID_52_)" fill="#FFFFFF" d="M28.123,185.282l23.142,18.739c1.82,1.474,4.512,1.189,5.983-0.627
		l10.711-13.224c1.473-1.818,1.188-4.51-0.629-5.986l-5.992-4.851c-1.027-0.833-2.535-0.675-3.365,0.354
		c-0.833,1.026-0.676,2.534,0.352,3.366l5.581,4.518l-10.041,12.397l-22.318-18.07l10.041-12.399l5.58,4.517
		c1.027,0.833,2.535,0.675,3.366-0.354c0.831-1.026,0.672-2.533-0.354-3.364l-5.993-4.853c-1.818-1.472-4.511-1.19-5.985,0.629
		L27.493,179.3C26.021,181.116,26.304,183.81,28.123,185.282 M28.624,184.661c-1.48-1.198-1.709-3.381-0.512-4.861l10.71-13.225
		c1.201-1.48,3.381-1.711,4.861-0.511l5.993,4.851c0.684,0.556,0.789,1.562,0.236,2.246c-0.555,0.685-1.56,0.791-2.244,0.236
		l-5.58-4.519c-0.342-0.279-0.844-0.226-1.121,0.119l-10.041,12.397c-0.278,0.342-0.224,0.846,0.117,1.121l22.318,18.072
		c0.343,0.276,0.845,0.225,1.122-0.116l10.039-12.398c0.28-0.341,0.225-0.845-0.117-1.123l-5.579-4.517
		c-0.685-0.556-0.79-1.56-0.237-2.245c0.555-0.685,1.56-0.789,2.244-0.237l5.992,4.854c1.483,1.199,1.711,3.379,0.512,4.864
		l-10.709,13.223c-1.2,1.482-3.38,1.711-4.863,0.511L28.624,184.661z"/>
</g>
<g>
	<defs>
		<rect id="SVGID_53_" x="0.351" y="0.771" width="219.15" height="218.729"/>
	</defs>
	<clipPath id="SVGID_54_">
		<use xlink:href="#SVGID_53_"  overflow="visible"/>
	</clipPath>
	<path clip-path="url(#SVGID_54_)" fill="#FFFFFF" d="M16.891,101.508C16.891,101.508,16.891,101.508,16.891,101.508
		c-0.793,0-1.581-0.127-2.341-0.371c-3.968-1.292-6.148-5.569-4.858-9.537l1.753-5.395c-1.534,0.301-3.14,0.204-4.647-0.285
		c-4.069-1.322-6.697-5.219-6.401-9.48c-0.006-0.574,0.08-1.141,0.258-1.684l0.356-1.095c0.174-0.542,0.438-1.051,0.781-1.51
		c1.685-2.694,4.7-4.365,7.877-4.365c0.973,0,1.939,0.154,2.873,0.457c1.521,0.493,2.858,1.349,3.927,2.499l1.753-5.394
		c1.017-3.127,3.91-5.23,7.197-5.23c0.792,0,1.581,0.125,2.34,0.374c1.922,0.622,3.487,1.959,4.405,3.76
		c0.916,1.803,1.079,3.853,0.453,5.774l-8.528,26.248C23.071,99.404,20.179,101.508,16.891,101.508z M13.507,84.178l-2.545,7.834
		c-1.062,3.27,0.733,6.792,4.002,7.853c0.626,0.204,1.275,0.308,1.927,0.308l0,0c2.708,0,5.089-1.732,5.926-4.31l8.529-26.249
		c0.516-1.582,0.383-3.271-0.373-4.754c-0.756-1.482-2.045-2.584-3.627-3.097c-0.627-0.205-1.275-0.309-1.927-0.309
		c-2.708,0-5.089,1.732-5.927,4.308l-2.544,7.833l-0.77-1.094c-0.997-1.417-2.396-2.45-4.048-2.987
		c-0.801-0.259-1.628-0.391-2.46-0.391c-2.729,0-5.317,1.438-6.758,3.759l-0.034,0.049c-0.263,0.35-0.464,0.733-0.596,1.146
		l-0.356,1.091c-0.135,0.414-0.197,0.844-0.19,1.278l0.001,0.029l-0.004,0.032c-0.266,3.659,1.986,7.006,5.479,8.142
		c1.639,0.532,3.41,0.519,5.033-0.039L13.507,84.178z"/>
	<path clip-path="url(#SVGID_54_)" fill="#FFFFFF" d="M167.744,47.485c-0.927,0-1.818-0.281-2.572-0.81l-0.786-0.55
		c-0.984-0.688-1.639-1.719-1.849-2.906c-0.207-1.186,0.054-2.379,0.743-3.361l4.017-5.729l-2.441-1.708l-4.019,5.733
		c-0.838,1.198-2.221,1.914-3.698,1.914c-0.925,0-1.815-0.28-2.572-0.81l-0.785-0.55c-0.982-0.686-1.639-1.718-1.85-2.904
		c-0.209-1.188,0.054-2.381,0.743-3.363l4.018-5.729l-2.442-1.707l-4.017,5.731c-0.841,1.198-2.224,1.914-3.698,1.914
		c-0.927,0-1.818-0.278-2.573-0.81l-0.785-0.549c-0.984-0.687-1.639-1.718-1.849-2.905c-0.21-1.187,0.054-2.381,0.742-3.362
		l8.801-12.556c0.841-1.198,2.222-1.914,3.698-1.914c0.927,0,1.814,0.279,2.573,0.809l21.995,15.385
		c0.983,0.688,1.64,1.72,1.846,2.906c0.211,1.187-0.052,2.38-0.738,3.361l-8.802,12.555
		C170.604,46.769,169.221,47.485,167.744,47.485z M164.527,30.562l4.629,3.237l-4.784,6.826c-0.48,0.688-0.667,1.528-0.52,2.361
		c0.148,0.836,0.611,1.561,1.297,2.043l0.786,0.551c0.534,0.372,1.158,0.567,1.809,0.567c1.042,0,2.015-0.502,2.604-1.344
		l8.802-12.557c0.482-0.688,0.667-1.528,0.519-2.364c-0.146-0.833-0.608-1.559-1.297-2.042l-21.995-15.384
		c-0.532-0.372-1.158-0.568-1.808-0.568c-1.04,0-2.014,0.502-2.605,1.346l-8.8,12.554c-0.484,0.689-0.667,1.529-0.519,2.364
		c0.147,0.833,0.607,1.56,1.296,2.042l0.785,0.551c0.534,0.371,1.159,0.568,1.81,0.568c1.04,0,2.014-0.503,2.604-1.346l4.783-6.824
		l4.629,3.237l-4.783,6.826c-0.484,0.689-0.667,1.529-0.519,2.364c0.146,0.833,0.606,1.56,1.296,2.042l0.785,0.55
		c0.533,0.373,1.157,0.57,1.809,0.57c1.04,0,2.015-0.504,2.604-1.345L164.527,30.562z"/>
	<path clip-path="url(#SVGID_54_)" fill="#FFFFFF" d="M178.164,145.305c-1.432,4.407,0.98,9.144,5.389,10.575l11.369,3.696
		c2.129,0.69,4.437-0.486,5.13-2.613l2.67-8.227c0.695-2.127-0.483-4.436-2.61-5.127l-11.373-3.693
		C184.332,138.481,179.596,140.895,178.164,145.305"/>
	<path clip-path="url(#SVGID_54_)" fill="#FFFFFF" d="M184.788,124.921c-1.434,4.409,0.98,9.145,5.386,10.576l11.371,3.693
		c2.13,0.691,4.437-0.483,5.128-2.611l2.674-8.226c0.691-2.127-0.484-4.437-2.614-5.128l-11.367-3.693
		C190.954,118.101,186.221,120.512,184.788,124.921"/>
	<path clip-path="url(#SVGID_54_)" fill="#FFFFFF" d="M27.318,154.595l-1.58-4.861l4.862-1.581c1.989-0.646,3.09-2.804,2.443-4.795
		l-5.365-16.512c-0.648-1.987-2.804-3.09-4.795-2.439l-4.862,1.577l-1.581-4.861c-0.648-1.99-2.804-3.09-4.793-2.445l-2.942,0.958
		c-1.989,0.646-3.089,2.805-2.443,4.793l1.581,4.863l-4.863,1.581c-1.99,0.647-3.089,2.805-2.442,4.795l5.365,16.51
		c0.646,1.991,2.803,3.09,4.795,2.442l4.863-1.578l1.579,4.861c0.648,1.991,2.804,3.09,4.794,2.443l2.941-0.956
		C26.864,158.743,27.964,156.586,27.318,154.595"/>
</g>
<g>
	<defs>
		
			<rect id="SVGID_55_" x="32.97" y="12.157" transform="matrix(-0.5878 -0.809 0.809 -0.5878 47.4599 88.2382)" width="26.48" height="39.741"/>
	</defs>
	<clipPath id="SVGID_56_">
		<use xlink:href="#SVGID_55_"  overflow="visible"/>
	</clipPath>
	<g clip-path="url(#SVGID_56_)">
		<defs>
			
				<rect id="SVGID_57_" x="26.34" y="18.787" transform="matrix(-0.809 0.5878 -0.5878 -0.809 102.4203 30.7772)" width="39.741" height="26.481"/>
		</defs>
		<clipPath id="SVGID_58_">
			<use xlink:href="#SVGID_57_"  overflow="visible"/>
		</clipPath>
		<g transform="matrix(1 -2.980232e-08 0 1 0 0)" clip-path="url(#SVGID_58_)">
			
				<image overflow="visible" width="493" height="329" xlink:href="B94377CFC6412849.png"  transform="matrix(0.0652 -0.0474 0.0473 0.0651 22.353 32.9956)">
			</image>
		</g>
	</g>
</g>
</svg>
